<svg height="512" viewBox="0 0 64 64" width="512" xmlns="http://www.w3.org/2000/svg" xmlns:xlink="http://www.w3.org/1999/xlink"><linearGradient id="Áåçûìÿííûé_ãðàäèåíò_206" gradientUnits="userSpaceOnUse" x1="3.4" x2="60.6" y1="32" y2="32"><stop offset="0" stop-color="#f47f21"/><stop offset=".07" stop-color="#f3702c"/><stop offset=".33" stop-color="#ef3856"/><stop offset=".46" stop-color="#ed2266"/><stop offset="1" stop-color="#5a4199"/></linearGradient><g id="Layer_89" data-name="Layer 89"><path d="m50 20h-7.91a6.64 6.64 0 1 0 -10.09-8.16 6.64 6.64 0 1 0 -10.09 8.16h-7.91a3.75 3.75 0 0 0 -3.75 3.75v4.25a3.75 3.75 0 0 0 3 3.67v16.33a3.75 3.75 0 0 0 3.75 3.75h30a3.75 3.75 0 0 0 3.75-3.75v-16.29a3.75 3.75 0 0 0 3-3.67v-4.25a3.75 3.75 0 0 0 -3.75-3.79zm-12.11-10.25a5.15 5.15 0 1 1 0 10.29h-5.14v-5.15a5.15 5.15 0 0 1 5.14-5.14zm-5.14 11.79v8.75h-1.5v-8.75zm-11.75-6.65a5.15 5.15 0 0 1 10.29 0v5.11h-5.18a5.16 5.16 0 0 1 -5.11-5.11zm-9.25 13.11v-4.21a2.25 2.25 0 0 1 2.25-2.25h15.75v8.75h-15.75a2.25 2.25 0 0 1 -2.25-2.29zm3 20v-16.21h15v18.46h-12.75a2.25 2.25 0 0 1 -2.25-2.25zm16.5 2.25v-18.46h1.5v18.46zm18-2.25a2.25 2.25 0 0 1 -2.25 2.25h-12.75v-18.46h15zm3-20a2.25 2.25 0 0 1 -2.25 2.29h-15.75v-8.75h15.75a2.25 2.25 0 0 1 2.25 2.25zm-20.25 32.6a28.6 28.6 0 1 1 28.6-28.6 28.63 28.63 0 0 1 -28.6 28.6zm0-56a27.4 27.4 0 1 0 27.4 27.4 27.43 27.43 0 0 0 -27.4-27.4z" fill="url(#Áåçûìÿííûé_ãðàäèåíò_206)"/></g></svg>